<svg width="36" height="36" viewBox="0 0 36 36" fill="none" xmlns="http://www.w3.org/2000/svg">
<path opacity="0.5" d="M17.9952 11.8574C14.69 11.8574 11.9927 14.5042 11.9927 17.7476C11.9927 20.9909 14.69 23.6378 17.9952 23.6378C21.3003 23.6378 23.9976 20.9909 23.9976 17.7476C23.9976 14.5042 21.3003 11.8574 17.9952 11.8574ZM35.998 17.7476C35.998 15.3084 36.0205 12.8913 35.8809 10.4566C35.7413 7.62861 35.0839 5.11875 32.9765 3.05077C30.8646 0.978376 28.3114 0.337656 25.4295 0.200675C22.9439 0.0636931 20.4808 0.085787 17.9997 0.085787C15.514 0.085787 13.0509 0.0636931 10.5698 0.200675C7.68789 0.337656 5.13021 0.982794 3.02282 3.05077C0.910937 5.12317 0.258008 7.62861 0.118416 10.4566C-0.0211755 12.8958 0.00133938 15.3128 0.00133938 17.7476C0.00133938 20.1823 -0.0211755 22.6038 0.118416 25.0385C0.258008 27.8665 0.91544 30.3764 3.02282 32.4443C5.13471 34.5167 7.68789 35.1575 10.5698 35.2944C13.0554 35.4314 15.5185 35.4093 17.9997 35.4093C20.4853 35.4093 22.9484 35.4314 25.4295 35.2944C28.3114 35.1575 30.8691 34.5123 32.9765 32.4443C35.0884 30.3719 35.7413 27.8665 35.8809 25.0385C36.025 22.6038 35.998 20.1867 35.998 17.7476ZM17.9952 26.8104C12.8843 26.8104 8.75959 22.7628 8.75959 17.7476C8.75959 12.7323 12.8843 8.68469 17.9952 8.68469C23.106 8.68469 27.2307 12.7323 27.2307 17.7476C27.2307 22.7628 23.106 26.8104 17.9952 26.8104ZM27.609 10.4301C26.4157 10.4301 25.4521 9.48448 25.4521 8.31351C25.4521 7.14254 26.4157 6.19693 27.609 6.19693C28.8023 6.19693 29.7659 7.14254 29.7659 8.31351C29.7663 8.59156 29.7107 8.86695 29.6024 9.12391C29.4942 9.38086 29.3353 9.61433 29.1349 9.81094C28.9346 10.0076 28.6967 10.1634 28.4348 10.2697C28.173 10.3759 27.8923 10.4304 27.609 10.4301Z" fill="#444444"/>
</svg>
