<svg width="99" height="99" viewBox="0 0 99 99" fill="none" xmlns="http://www.w3.org/2000/svg">
<path fill-rule="evenodd" clip-rule="evenodd" d="M0 47.9025C0.773893 35.8986 10.3779 26.2994 22.388 25.5259V47.9025H0Z" fill="#444444"/>
<path fill-rule="evenodd" clip-rule="evenodd" d="M22.388 73.4105C10.378 72.637 0.773893 63.038 0 51.0341H22.388V73.4105Z" fill="#444444"/>
<path fill-rule="evenodd" clip-rule="evenodd" d="M47.9097 51.0341C47.1355 63.0378 37.5317 72.637 25.5215 73.4104V51.0341H47.9097Z" fill="#444444"/>
<path fill-rule="evenodd" clip-rule="evenodd" d="M47.9095 47.9024C35.8993 47.1288 26.2953 37.5298 25.5215 25.5259H47.9095V47.9024Z" fill="#444444"/>
<path fill-rule="evenodd" clip-rule="evenodd" d="M48.0151 0C36.005 0.773533 26.401 10.3727 25.627 22.3766H48.0151V0Z" fill="#444444"/>
<path fill-rule="evenodd" clip-rule="evenodd" d="M98.9994 51.0984C98.2255 63.1021 88.6215 72.7013 76.6113 73.4749V51.0984H98.9994Z" fill="#444444"/>
<path fill-rule="evenodd" clip-rule="evenodd" d="M76.6113 25.5895C88.6213 26.363 98.2253 35.962 98.9992 47.966H76.6113V25.5895Z" fill="#444444"/>
<path fill-rule="evenodd" clip-rule="evenodd" d="M51.0908 47.9658C51.8648 35.962 61.4687 26.363 73.4788 25.5895V47.9658H51.0908Z" fill="#444444"/>
<path fill-rule="evenodd" clip-rule="evenodd" d="M51.0908 51.0984C63.1008 51.8719 72.705 61.4709 73.4788 73.4749H51.0908V51.0984Z" fill="#444444"/>
<path fill-rule="evenodd" clip-rule="evenodd" d="M50.9844 98.9993C62.9946 98.2258 72.5985 88.6266 73.3724 76.6227H50.9844V98.9993Z" fill="#444444"/>
</svg>
