<svg width="99" height="99" viewBox="0 0 99 99" fill="none" xmlns="http://www.w3.org/2000/svg">
<path fill-rule="evenodd" clip-rule="evenodd" d="M0 47.9025C0.773893 35.8986 10.3779 26.2994 22.388 25.5259V47.9025H0Z" fill="#EF7D2A"/>
<path fill-rule="evenodd" clip-rule="evenodd" d="M22.388 73.4106C10.378 72.6371 0.773893 63.0381 0 51.0342H22.388V73.4106Z" fill="#E63D28"/>
<path fill-rule="evenodd" clip-rule="evenodd" d="M47.9097 51.0342C47.1355 63.0379 37.5317 72.6371 25.5215 73.4105V51.0342H47.9097Z" fill="#B72A22"/>
<path fill-rule="evenodd" clip-rule="evenodd" d="M47.9095 47.9024C35.8993 47.1288 26.2953 37.5298 25.5215 25.5259H47.9095V47.9024Z" fill="#F8AD03"/>
<path fill-rule="evenodd" clip-rule="evenodd" d="M48.0161 0C36.0059 0.773533 26.4019 10.3727 25.6279 22.3766H48.0161V0Z" fill="#FECD08"/>
<path fill-rule="evenodd" clip-rule="evenodd" d="M99.0003 51.0986C98.2265 63.1024 88.6225 72.7016 76.6123 73.4751V51.0986H99.0003Z" fill="#E76E28"/>
<path fill-rule="evenodd" clip-rule="evenodd" d="M76.6123 25.5894C88.6223 26.3629 98.2263 35.9619 99.0002 47.9658H76.6123V25.5894Z" fill="#FECD08"/>
<path fill-rule="evenodd" clip-rule="evenodd" d="M51.0898 47.9657C51.8639 35.9619 61.4677 26.3629 73.4779 25.5894V47.9657H51.0898Z" fill="#EF7D2A"/>
<path fill-rule="evenodd" clip-rule="evenodd" d="M51.0898 51.0986C63.0999 51.8722 72.704 61.4712 73.4779 73.4751H51.0898V51.0986Z" fill="#F8AD03"/>
<path fill-rule="evenodd" clip-rule="evenodd" d="M50.9844 98.9992C62.9946 98.2257 72.5985 88.6265 73.3724 76.6226H50.9844V98.9992Z" fill="#F7D27A"/>
</svg>
