<svg width="36" height="37" viewBox="0 0 36 37" fill="none" xmlns="http://www.w3.org/2000/svg">
<path opacity="0.5" d="M7.054 0.0732422C3.17444 0.0732422 0 3.26517 0 7.16611V29.1787C0 33.0797 3.17444 36.2716 7.054 36.2716H28.946C32.8256 36.2716 36 33.0797 36 29.1787V7.16611C36 3.26517 32.8256 0.0732422 28.946 0.0732422H7.054Z" fill="#444444"/>
<path d="M18.4417 8.11719C18.3818 8.11698 18.3224 8.12903 18.267 8.15263C18.2116 8.17624 18.1612 8.21094 18.1188 8.25475C18.0763 8.29856 18.0427 8.35062 18.0197 8.40793C17.9967 8.46525 17.9849 8.5267 17.9849 8.58876C17.9849 8.71424 18.033 8.83459 18.1187 8.92332C18.2044 9.01205 18.3206 9.0619 18.4417 9.0619C19.5738 9.03953 20.699 9.24962 21.7523 9.68002C22.8056 10.1104 23.7662 10.7526 24.5786 11.5696C26.2384 13.2413 27.047 15.4809 27.0775 18.4144C27.0775 18.4765 27.0893 18.5381 27.1123 18.5955C27.1352 18.6529 27.1689 18.705 27.2113 18.749C27.2537 18.7929 27.3041 18.8277 27.3595 18.8515C27.4149 18.8753 27.4743 18.8875 27.5343 18.8875V18.8733C27.6555 18.8733 27.7717 18.8235 27.8574 18.7348C27.943 18.646 27.9912 18.5257 27.9912 18.4002C28.0477 17.0206 27.8324 15.6436 27.3586 14.353C26.8847 13.0623 26.1622 11.8851 25.2349 10.893C23.4228 9.06348 21.1371 8.11719 18.4417 8.11719ZM12.4206 9.20542C12.0967 9.15763 11.7668 9.2243 11.4841 9.39468H11.4658C10.8415 9.7732 10.2658 10.2463 9.71763 10.8772C9.30647 11.3819 9.07653 11.885 9.01562 12.3739C8.97979 12.6607 9.00579 12.9521 9.09176 13.2272L9.12221 13.2429C9.59158 14.6721 10.204 16.0464 10.9496 17.3435C11.916 19.1601 13.1033 20.8409 14.4825 22.3447L14.5281 22.4077L14.5891 22.4551L14.6347 22.5024L14.6804 22.5497C16.1381 23.9817 17.7652 25.2165 19.5229 26.2244C21.533 27.36 22.7543 27.8962 23.4852 28.117V28.1328C23.6984 28.1959 23.8933 28.2274 24.0913 28.2274C24.7152 28.1803 25.306 27.9182 25.7694 27.483C26.3633 26.931 26.8354 26.3191 27.1856 25.6724V25.6567C27.5359 24.9785 27.414 24.3303 26.9115 23.8887C25.8988 22.9711 24.8023 22.1577 23.6375 21.4599C22.8609 21.0183 22.069 21.2864 21.7492 21.728L21.064 22.6254C20.7137 23.067 20.0742 23.0039 20.0742 23.0039L20.0559 23.0197C15.3048 21.758 14.0408 16.7757 14.0408 16.7757C14.0408 16.7757 13.9799 16.0976 14.4215 15.7506L15.2743 15.0409C15.6855 14.6939 15.9748 13.8738 15.5332 13.0694C14.8603 11.8625 14.0749 10.7268 13.1881 9.67857C12.9952 9.43079 12.7229 9.26291 12.4206 9.20542ZM19.2321 10.6091C19.1109 10.6095 18.9949 10.6598 18.9095 10.7488C18.8241 10.8378 18.7763 10.9583 18.7767 11.0838C18.7771 11.2093 18.8257 11.3295 18.9116 11.4179C18.9976 11.5063 19.1139 11.5558 19.2351 11.5554C20.759 11.5828 22.2103 12.235 23.2705 13.3691C23.7488 13.9156 24.1166 14.5559 24.352 15.252C24.5874 15.9482 24.6857 16.6862 24.641 17.4224C24.6414 17.5476 24.6897 17.6675 24.7754 17.7559C24.861 17.8443 24.977 17.8939 25.0979 17.8939L25.1131 17.9129C25.1732 17.9129 25.2327 17.9006 25.2883 17.8767C25.3438 17.8528 25.3942 17.8178 25.4367 17.7737C25.4791 17.7296 25.5127 17.6773 25.5356 17.6197C25.5585 17.5621 25.5701 17.5004 25.5699 17.4381C25.6156 15.5613 25.0522 13.9842 23.9405 12.7225C22.8289 11.4607 21.2756 10.751 19.296 10.6091C19.2747 10.6075 19.2533 10.6075 19.2321 10.6091ZM19.9782 13.1625C19.9171 13.1606 19.8563 13.1712 19.7992 13.1937C19.742 13.2162 19.6897 13.2502 19.6453 13.2936C19.6008 13.337 19.565 13.3891 19.54 13.4468C19.5149 13.5046 19.5011 13.5668 19.4993 13.6301C19.4975 13.6934 19.5078 13.7564 19.5295 13.8156C19.5512 13.8748 19.5839 13.9289 19.6259 13.975C19.6678 14.021 19.7181 14.0581 19.7738 14.084C19.8296 14.11 19.8897 14.1243 19.9508 14.1261C21.4584 14.205 22.1893 14.9936 22.2807 16.618C22.2846 16.7408 22.3345 16.8571 22.4198 16.9424C22.505 17.0278 22.619 17.0755 22.7375 17.0754H22.7528C22.8141 17.0734 22.8744 17.0587 22.9302 17.032C22.9859 17.0053 23.0359 16.9673 23.0771 16.9202C23.1183 16.8731 23.1499 16.8179 23.1701 16.7578C23.1902 16.6978 23.1985 16.6341 23.1944 16.5707C23.0878 14.4573 21.9761 13.2729 19.9965 13.1625C19.9904 13.1624 19.9843 13.1624 19.9782 13.1625Z" fill="#ECE8E2"/>
</svg>
