<svg width="36" height="37" viewBox="0 0 36 37" fill="none" xmlns="http://www.w3.org/2000/svg">
<path opacity="0.5" d="M7.054 0.0732422C3.17444 0.0732422 0 3.26517 0 7.16611V29.1787C0 33.0797 3.17444 36.2716 7.054 36.2716H28.946C32.8256 36.2716 36 33.0797 36 29.1787V7.16611C36 3.26517 32.8256 0.0732422 28.946 0.0732422H7.054Z" fill="#444444"/>
<path d="M7.37092 17.9385L12.2097 19.7545L14.0827 25.811C14.2025 26.1989 14.6742 26.3423 14.9874 26.0849L17.6846 23.8739C17.9673 23.6423 18.37 23.6307 18.6655 23.8464L23.5304 27.3979C23.8653 27.6427 24.3399 27.4581 24.4239 27.0512L27.9876 9.8142C28.0793 9.36964 27.6449 8.99878 27.2239 9.1625L7.36525 16.8656C6.87518 17.0557 6.87945 17.7533 7.37092 17.9385ZM13.7808 18.7878L23.2377 12.9312C23.4077 12.8262 23.5825 13.0573 23.4366 13.1934L15.6319 20.4883C15.3576 20.745 15.1806 21.0887 15.1305 21.4616L14.8646 23.4427C14.8294 23.7072 14.4599 23.7335 14.3873 23.4775L13.3648 19.8649C13.2477 19.4529 13.4184 19.0128 13.7808 18.7878Z" fill="#ECE8E2"/>
</svg>
