<svg width="36" height="37" viewBox="0 0 36 37" fill="none" xmlns="http://www.w3.org/2000/svg">
<path opacity="0.5" d="M7.054 0.0732422C3.17444 0.0732422 0 3.26517 0 7.16611V29.1787C0 33.0797 3.17444 36.2716 7.054 36.2716H28.946C32.8256 36.2716 36 33.0797 36 29.1787V7.16611C36 3.26517 32.8256 0.0732422 28.946 0.0732422H7.054ZM11.0923 8.24059H18.1935C19.6683 8.24059 20.7885 8.29485 21.5489 8.41139C22.3093 8.52211 23.0236 8.75943 23.6873 9.12057C24.4055 9.50962 24.945 10.0335 25.3003 10.6826C25.6556 11.3354 25.8358 12.0858 25.8358 12.939C25.8358 13.9251 25.5911 14.8016 25.0979 15.571C24.6094 16.3404 23.9317 16.9062 23.0697 17.2721V17.3773C24.3099 17.6421 25.3046 18.1748 26.0506 18.9857C26.7978 19.7974 27.171 20.8901 27.171 22.2623C27.171 23.2667 26.9824 24.1526 26.6041 24.9124C26.2259 25.6722 25.7194 26.2983 25.0788 26.799C24.3231 27.3961 23.4938 27.8174 22.585 28.0726C21.6819 28.3268 20.5347 28.4537 19.1384 28.4537H11.0923V8.24063L11.0923 8.24059ZM16.1147 11.9459V16.2236H16.7503C17.6122 16.2236 18.2212 16.2147 18.5669 16.1965C18.9127 16.1782 19.2725 16.0851 19.6412 15.9137C20.0415 15.724 20.3234 15.4606 20.4747 15.1265C20.6269 14.7884 20.7053 14.3981 20.7053 13.9581C20.7053 13.6297 20.6222 13.2954 20.4555 12.9526C20.2899 12.6098 20.0324 12.3592 19.6771 12.2061C19.3458 12.0578 18.954 11.9796 18.4972 11.9652C18.0413 11.9507 17.364 11.946 16.4657 11.946H16.1147L16.1147 11.9459ZM16.1147 19.6858V24.7461H16.387C17.7009 24.7461 18.6084 24.7362 19.1102 24.7179C19.6121 24.6996 20.129 24.5798 20.649 24.3525C21.1107 24.1532 21.4421 23.8611 21.6547 23.4759C21.8663 23.0917 21.9719 22.6559 21.9719 22.1696C21.9719 21.5436 21.8489 21.0573 21.5951 20.7048C21.3422 20.3485 20.964 20.084 20.4612 19.9029C20.1567 19.7825 19.7324 19.7173 19.198 19.7039C18.6636 19.6904 17.9454 19.6858 17.0462 19.6858H16.1148H16.1147Z" fill="#444444"/>
</svg>
