<svg width="36" height="37" viewBox="0 0 36 37" fill="none" xmlns="http://www.w3.org/2000/svg">
<path opacity="0.5" d="M7.054 0C3.17444 0 0 3.19193 0 7.09286V29.1055C0 33.0064 3.17444 36.1984 7.054 36.1984H28.946C32.8256 36.1984 36 33.0064 36 29.1055V7.09286C36 3.19193 32.8256 0 28.946 0H7.054Z" fill="#444444"/>
<path d="M18.5026 8H18.4974C12.7079 8 8 12.7092 8 18.5C8 20.7969 8.74025 22.9257 9.99894 24.6543L8.69038 28.5551L12.7263 27.2649C14.3866 28.3647 16.3672 29 18.5026 29C24.2921 29 29 24.2894 29 18.5C29 12.7106 24.2921 8 18.5026 8ZM24.6123 22.8273C24.359 23.5426 23.3536 24.1359 22.5517 24.3091C22.0031 24.4259 21.2864 24.5191 18.8741 23.519C15.7884 22.2406 13.8012 19.1051 13.6464 18.9016C13.4981 18.6982 12.3995 17.2413 12.3995 15.7346C12.3995 14.2278 13.1647 13.4941 13.4731 13.1791C13.7264 12.9206 14.1451 12.8024 14.5468 12.8024C14.6767 12.8024 14.7935 12.809 14.8985 12.8142C15.2069 12.8274 15.3618 12.8458 15.5652 13.3327C15.8186 13.943 16.4354 15.4498 16.5089 15.6046C16.5837 15.7595 16.6586 15.9695 16.5536 16.1729C16.4551 16.3829 16.3685 16.4761 16.2136 16.6546C16.0588 16.8331 15.9117 16.9696 15.7569 17.1613C15.6151 17.3279 15.455 17.5064 15.6335 17.8149C15.812 18.1167 16.4289 19.1234 17.3371 19.9319C18.5092 20.9754 19.4594 21.3088 19.7994 21.4505C20.0527 21.5555 20.3546 21.5306 20.5396 21.3337C20.7746 21.0804 21.0646 20.6604 21.3599 20.2469C21.5699 19.9503 21.8351 19.9136 22.1133 20.0186C22.3968 20.117 23.897 20.8586 24.2054 21.0121C24.5139 21.167 24.7173 21.2405 24.7921 21.3704C24.8656 21.5004 24.8656 22.1107 24.6123 22.8273Z" fill="#ECE8E2"/>
</svg>
